<svg xmlns="http://www.w3.org/2000/svg" width="292" height="143">
  <g fill="none" fill-rule="evenodd">
    <path fill="#E7655B" fill-rule="nonzero" d="M72 51c2 0 3-2 4-4l4-4 4-2 2-3 1-3c0-2 0-5 2-7l2-4-2-4-4-2h-5l-8-3-6 1c-3 1-4 4-5 7l-3 8-3 10 2 5c3 6 9 5 10 5h5"/>
    <path fill="#F8B380" fill-rule="nonzero" d="M1 99l1-8c0-2 2-2 3-2l7 3-3 7-4-2-2 3c-1 1-3 0-2-1"/>
    <path fill="#BDBEBD" fill-rule="nonzero" d="M1 99c-1 1 1 2 2 1l2-3v-1c0-2 0-5 2-6l-2-1c-1 0-3 0-3 2l-1 8z"/>
    <path fill="#F8B380" fill-rule="nonzero" d="M119 58c-12 6-26 6-39 6 1-2 3-5 3-8 12 1 23-1 34-3l4-3 2-1 3 1v1l-1 3-2 3h-1v2h-2l-1-1M35 74c6-1 12-3 17-6l11-7-6-6C35 72 30 70 27 70l-3 3 2 3 4-1 3 1v1l1-1 1-2M70 48c1 4-5 4-2 7 3 2 7 1 7 0 0-2-2-4 0-5l-5-2z"/>
    <path fill="#FFF" fill-rule="nonzero" d="M79 66c4-3 5-8 6-12l-9-1"/>
    <path fill="#FFF" fill-rule="nonzero" d="M74 81c-14 2-22-6-22-6 4-3 9-9 9-14l-5-7 6-1h5l9 1c3 8 4 10 3 13l-5 8v6"/>
    <path fill="#00C6B6" fill-rule="nonzero" d="M52 75s-11 8-17 22l-23-5-3 7c3 2 19 10 34 12 7-4 12-9 15-14 0 0-1 6 5 17l-2 17 8 1c10-20 9-42 4-53"/>
    <path stroke="#178377" stroke-width=".6" d="M63 88c-4 10-13 19-20 23"/>
    <path stroke="#F8DB62" stroke-width=".6" d="M37 67l-1 1-1 1 2 4 1 1h1"/>
    <path fill="#F8B380" fill-rule="nonzero" d="M79 23l-2 2-11 6-4 5c0 7 5 13 12 14 5 1 9-2 10-7l1-5c1-6-2-11-6-15M70 142h-9l-2-2 2-9 8 1-2 6h1l3 2c1 1 0 2-1 2"/>
    <path fill="#BDBEBD" fill-rule="nonzero" d="M70 142c1 0 2-1 1-2l-3-2h-8l-1 2 2 2h9z"/>
    <path stroke="#231F20" stroke-width=".6" d="M134 60s38 16 50-6c4-7 2-18-3-20-10-3-13 31 8 29 10-1 23-4 40-22"/>
    <path fill="#7E9CF1" fill-rule="nonzero" d="M226 15l25 42c2 2 5 2 6 0l35-56-64 9c-2 0-4 3-2 5"/>
    <path fill="#FFF" fill-rule="nonzero" d="M292 1l-64 9c-2 0-4 3-2 5l2 3 64-17z"/>
    <path fill="#E2E6E7" fill-rule="nonzero" d="M267 7l-26 5a1 1 0 1 1 0-2l26-4h1l-1 1"/>
    <path fill="#587CCB" fill-rule="nonzero" d="M283 7l-48 25v15l7-4-3-6z"/>
    <path fill="#FFF" fill-rule="nonzero" d="M244 27l-4-7 13-4 3 5"/>
    <path stroke="#587CCB" stroke-width=".6" d="M256 16l12-5M258 18l6-3M249 36l10-9M250 38l10-9M255 45l9-11M256 47l9-11M258 49l5-7M251 40l7-7"/>
    <path fill="#E7655B" fill-rule="nonzero" d="M229 13a1 1 0 1 1-2-1 1 1 0 0 1 2 1"/>
    <path fill="#F8DE70" fill-rule="nonzero" d="M232 12a1 1 0 1 1-2 0 1 1 0 0 1 2 0"/>
    <path fill="#00C6B6" fill-rule="nonzero" d="M235 12a1 1 0 1 1-2-1 1 1 0 0 1 2 1"/>
    <path stroke="#BDBEBD" stroke-width=".6" d="M237 11h1M237 11h-1l1 1"/>
    <path fill="#FFF" fill-rule="nonzero" d="M263 25l7 9 7-13-4-4z"/>
    <path fill="#587CCB" fill-rule="nonzero" d="M235 47l4-10 3 5z"/>
    <path stroke="#AEAEAE" stroke-width=".6" d="M292 1l-64 9"/>
    <path stroke="#376498" stroke-width=".6" d="M235 46l4-9 6-4"/>
    <path stroke="#C0BEBF" stroke-width=".6" d="M68 54l1 2 3-1 3 2 1-2"/>
    <path stroke="#C0BEBF" stroke-width=".6" d="M72 55v4l-1 2c0 3-2 9-4 11l-1 5M78 59c2 4 2 6 1 8l-5 8"/>
    <path stroke="#178377" stroke-width=".6" d="M47 79c2 1 5 1 7-1l2-2M72 80l1 2 1 1"/>
    <path stroke="#A9A9A9" stroke-width=".6" d="M4 97l1 1M4 98v1M68 139l1-2M69 139l1-1"/>
    <path stroke="#178377" stroke-width=".6" d="M61 131l8 1M61 129l8 2M12 92l-3 7M14 92l-2 6"/>
    <path fill="#E7655B" fill-rule="nonzero" d="M66 46c-3-3 4-5 5-7 2-4 1-10 5-12l7-2-5-4-17 14 2 11h3zM1 37v3c5 10 17 19 22 5 9-25 15-1 24-18 4-8 8-8 18-1l2-2c-5-5-11-9-18-10-12-4 0 15-15 10C7 16 16 40 5 38c-1 0-3-2-4-1"/>
    <path stroke="#676867" stroke-width=".6" d="M35 142h47"/>
  </g>
</svg>
